Get Low (2011) DIVX

Vanaf 17 maart in de bioscoop

Release 2009      



Verenigde Staten / Duitsland / Polen
Drama / Mystery
100 minuten

geregisseerd door Aaron Schneider
met Robert Duvall, Bill Murray en Sissy Spacek

De film vertelt het opmerkelijke en waargebeurde verhaal van Felix "Bush" 
Breazeale (Robert Duvall), een kluizenaar uit Tennessee die in 1938 bij 
leven zijn eigen begrafenis organiseerde en bezocht, zodat hij ervan kon 
genieten.
 
http://www.moviemeter.nl/film/56507

English

Storyline
Felix Bush (Robert Duvall) is a hermit who has no regard for anybody in the town or anyone who wants to get to know him. But one day, after a fellow old hermit as died and he hears people in the town telling stories about him, he decides that he needs to get these stories out in the public. He recruits Frank (Bill Murray) the local funeral home director to host his own funeral. This way he can hear what everyone is saying about him, and get the truth to his past out in the open. But will he be able to get anybody to come? And will he be able to reveal his secrets? 
 
http://www.imdb.com/title/tt1194263/


Source.............: Get.Low.720p.BluRay.x264-TWiZTED 
Audio..............: Engels: DD 5.1
Subtitles..........: Subtitles..........KahNOn, Winchestergirl en Apstra 
Controle...........: Depositair
Bewerking+Resync...: Depositair
Avi.....1.CD.......: Zelda

Spotinformatie 
Categorie : Beeld 
Formaat : DivX 
Bron : Retail
 
Ondertitels : Nederlands (extern)
Thanks  ed1970 
  
Format                           : AVI
Format/Info                      : Audio Video Interleave
File size                        : 686 MiB
Duration                         : 1h 43mn
Overall bit rate                 : 927 Kbps
Writing application              : FairUse Wizard - http://fairusewizard.com
Writing library                  : The best and REALLY easy backup tool

Video
ID                               : 0
Format                           : MPEG-4 Visual
Format profile                   : Advanced Simple@L5
Format settings, BVOP            : Yes
Format settings, QPel            : No
Format settings, GMC             : No warppoints
Format settings, Matrix          : Default (H.263)
Muxing mode                      : Packed bitstream
Codec ID                         : XVID
Codec ID/Hint                    : XviD
Duration                         : 1h 43mn
Bit rate                         : 790 Kbps
Width                            : 576 pixels
Height                           : 320 pixels
Display aspect ratio             : 16:9
Frame rate                       : 23.976 fps
Color space                      : YUV
Chroma subsampling               : 4:2:0
Bit depth                        : 8 bits
Scan type                        : Progressive
Bits/(Pixel*Frame)               : 0.179
Stream size                      : 584 MiB (85%)
Writing library                  : XviD 1.2.0.dev47 (UTC 2006-11-01)

Audio
ID                               : 1
Format                           : MPEG Audio
Format version                   : Version 1
Format profile                   : Layer 3
Mode                             : Joint stereo
Mode extension                   : MS Stereo
Codec ID                         : 55
Codec ID/Hint                    : MP3
Duration                         : 1h 43mn
Bit rate mode                    : Constant
Bit rate                         : 128 Kbps
Channel(s)                       : 2 channels
Sampling rate                    : 48.0 KHz
Stream size                      : 94.7 MiB (14%)
Alignment                        : Aligned on interleaves
Interleave, duration             : 42 ms (1.00 video frame)
Interleave, preload duration     : 504 ms
Writing library                  : LAME3.97 
Encoding settings                : -m j -V 4 -q 2 -lowpass 17 -b 128


 
Genre : Drama
Mysterie
 
Weblink :  http://www.moviemeter.nl/film/56507
Weblink :  http://www.imdb.com/title/tt1194263/

TBS

Black-Sam